<svg xmlns="http://www.w3.org/2000/svg" viewBox="0 0 512 512">
  <!-- Fundo Roxo Redondo -->
  <circle cx="256" cy="256" r="256" fill="#6b21a8"/>
  
  <!-- Tigela -->
  <path d="M126 230c0 80 50 150 130 150s130-70 130-150H126z" fill="#f3e8ff"/>
  <path d="M140 230c0 60 40 110 116 110s116-50 116-110H140z" fill="#4c1d95"/>
  
  <!-- Açaí (Bolas) -->
  <circle cx="256" cy="200" r="35" fill="#3b0764"/>
  <circle cx="210" cy="190" r="30" fill="#4c1d95"/>
  <circle cx="300" cy="190" r="30" fill="#4c1d95"/>
  <circle cx="256" cy="150" r="25" fill="#581c87"/>
  
  <!-- Folha Verde -->
  <path d="M256 150c0-40 30-70 60-70 0 40-30 70-60 70z" fill="#4ade80"/>
  <path d="M256 150c0-30-20-50-40-50 0 30 20 50 40 50z" fill="#22c55e"/>
</svg>